<?xml version="1.0" encoding="utf-8"?>
<!-- Generator: Adobe Illustrator 16.0.0, SVG Export Plug-In . SVG Version: 6.00 Build 0)  -->
<!DOCTYPE svg PUBLIC "-//W3C//DTD SVG 1.1//EN" "http://www.w3.org/Graphics/SVG/1.1/DTD/svg11.dtd">
<svg version="1.1" id="Layer_1" xmlns="http://www.w3.org/2000/svg" xmlns:xlink="http://www.w3.org/1999/xlink" x="0px" y="0px"
	 width="109px" height="85.5px" viewBox="0 0 109 85.5" enable-background="new 0 0 109 85.5" xml:space="preserve">
<g>
	<path d="M91.1,7.149h-73.2c-6.737,0-12.2,5.463-12.2,12.2V68.15c0,6.737,5.463,12.2,12.2,12.2h73.2
		c6.738,0,12.201-5.463,12.201-12.2V19.35C103.301,12.613,97.838,7.149,91.1,7.149L91.1,7.149z M71.019,39.705l25.824-22.13
		c0.179,0.571,0.357,1.144,0.357,1.775V68.15c0,0.423-0.161,0.799-0.244,1.197L71.019,39.705z M91.1,13.25
		c0.406,0,0.764,0.155,1.145,0.232L54.5,45.836L16.755,13.482c0.382-0.077,0.739-0.232,1.145-0.232H91.1z M12.041,69.342
		c-0.083-0.399-0.241-0.769-0.241-1.191V19.35c0-0.631,0.181-1.204,0.36-1.775L37.975,39.7L12.041,69.342z M17.899,74.251
		c-0.617,0-1.177-0.18-1.74-0.352l26.45-30.228l9.908,8.489c0.568,0.495,1.277,0.739,1.983,0.739c0.705,0,1.415-0.244,1.983-0.739
		l9.906-8.489l26.45,30.228c-0.56,0.173-1.12,0.352-1.74,0.352H17.899z M17.899,74.251"/>
</g>
</svg>
