<?xml version="1.0" encoding="utf-8"?>
<!-- Generator: Adobe Illustrator 16.0.0, SVG Export Plug-In . SVG Version: 6.00 Build 0)  -->
<!DOCTYPE svg PUBLIC "-//W3C//DTD SVG 1.1//EN" "http://www.w3.org/Graphics/SVG/1.1/DTD/svg11.dtd">
<svg version="1.1" id="Layer_1" xmlns="http://www.w3.org/2000/svg" xmlns:xlink="http://www.w3.org/1999/xlink" x="0px" y="0px"
	 width="78px" height="78px" viewBox="0 0 78 78" enable-background="new 0 0 78 78" xml:space="preserve">
<g>
	<g>
		<defs>
			<rect id="SVGID_1_" x="18" y="0.549" width="42" height="76.902"/>
		</defs>
		<clipPath id="SVGID_2_">
			<use xlink:href="#SVGID_1_"  overflow="visible"/>
		</clipPath>
		<path clip-path="url(#SVGID_2_)" d="M58.012,0.466l-9.973-0.015c-11.203,0-18.445,7.429-18.445,18.925v8.727H19.566
			c-0.863,0-1.566,0.699-1.566,1.566v12.646c0,0.863,0.703,1.566,1.566,1.566h10.028v31.902c0,0.863,0.703,1.566,1.57,1.566h13.078
			c0.867,0,1.569-0.703,1.569-1.566V43.881h11.724c0.867,0,1.566-0.703,1.566-1.566l0.008-12.646c0-0.414-0.168-0.812-0.461-1.109
			c-0.293-0.293-0.691-0.457-1.109-0.457H45.812v-7.398c0-3.555,0.849-5.36,5.478-5.36l6.719-0.004c0.867,0,1.566-0.703,1.566-1.566
			V2.037C59.574,1.169,58.875,0.47,58.012,0.466L58.012,0.466z M58.012,0.466"/>
	</g>
</g>
</svg>
