<?xml version="1.0" encoding="utf-8"?>
<!-- Generator: Adobe Illustrator 16.0.0, SVG Export Plug-In . SVG Version: 6.00 Build 0)  -->
<!DOCTYPE svg PUBLIC "-//W3C//DTD SVG 1.1//EN" "http://www.w3.org/Graphics/SVG/1.1/DTD/svg11.dtd">
<svg version="1.1" id="Layer_1" xmlns="http://www.w3.org/2000/svg" xmlns:xlink="http://www.w3.org/1999/xlink" x="0px" y="0px"
	 width="78px" height="78px" viewBox="0 0 78 78" enable-background="new 0 0 78 78" xml:space="preserve">
<g>
	<g>
		<defs>
			<rect id="SVGID_1_" x="0.92" y="9.838" width="76" height="58.267"/>
		</defs>
		<clipPath id="SVGID_2_">
			<use xlink:href="#SVGID_1_"  overflow="visible"/>
		</clipPath>
		<path clip-path="url(#SVGID_2_)" d="M59.193,35.726H31.999v9.066h16.592c-2.476,7.88-9.837,13.597-18.535,13.597
			c-10.728,0-19.424-8.697-19.424-19.425c0-10.728,8.697-19.425,19.424-19.425c5.402,0,10.289,2.207,13.809,5.767l6.581-7.152
			c-5.255-5.15-12.451-8.326-20.39-8.326C13.965,9.827,0.92,22.872,0.92,38.963s13.044,29.138,29.136,29.138
			c14.097,0,26.437-10.011,29.137-23.31V35.726z M59.193,35.726"/>
	</g>
	<path d="M76.853,35.71h-5.563v-5.562h-4.769v5.562h-5.562v4.768h5.562v5.563h4.769v-5.563h5.563V35.71z M76.853,35.71"/>
</g>
</svg>
