<?xml version="1.0" encoding="utf-8"?>
<!-- Generator: Adobe Illustrator 16.0.0, SVG Export Plug-In . SVG Version: 6.00 Build 0)  -->
<!DOCTYPE svg PUBLIC "-//W3C//DTD SVG 1.1//EN" "http://www.w3.org/Graphics/SVG/1.1/DTD/svg11.dtd">
<svg version="1.1" id="Layer_1" xmlns="http://www.w3.org/2000/svg" xmlns:xlink="http://www.w3.org/1999/xlink" x="0px" y="0px"
	 width="78px" height="78px" viewBox="0 0 78 78" enable-background="new 0 0 78 78" xml:space="preserve">
<g>
	<path d="M39,19.344c-10.838,0-19.656,8.818-19.656,19.656c0,10.838,8.818,19.656,19.656,19.656
		c10.839,0,19.655-8.816,19.655-19.656C58.655,28.162,49.839,19.344,39,19.344z M39,51.01c-6.633,0-12.011-5.375-12.011-12.01
		c0-6.633,5.377-12.011,12.011-12.011c6.634,0,12.01,5.377,12.01,12.011C51.01,45.635,45.634,51.01,39,51.01z"/>
	<circle cx="58.694" cy="19.492" r="4.71"/>
	<path d="M54.359,1H23.641C11.156,1,1,11.156,1,23.641v30.719C1,66.844,11.156,77,23.641,77h30.719C66.844,77,77,66.844,77,54.359
		V23.641C77,11.156,66.844,1,54.359,1z M69.354,54.359c0,8.281-6.715,14.996-14.995,14.996H23.641
		c-8.281,0-14.995-6.715-14.995-14.996V23.641c0-8.281,6.713-14.995,14.995-14.995h30.719c8.28,0,14.995,6.714,14.995,14.995V54.359
		z"/>
</g>
</svg>
