<?xml version="1.0" encoding="utf-8"?>
<!-- Generator: Adobe Illustrator 16.0.0, SVG Export Plug-In . SVG Version: 6.00 Build 0)  -->
<!DOCTYPE svg PUBLIC "-//W3C//DTD SVG 1.1//EN" "http://www.w3.org/Graphics/SVG/1.1/DTD/svg11.dtd">
<svg version="1.1" id="Layer_1" xmlns="http://www.w3.org/2000/svg" xmlns:xlink="http://www.w3.org/1999/xlink" x="0px" y="0px"
	 width="78px" height="78px" viewBox="0 0 78 78" enable-background="new 0 0 78 78" xml:space="preserve">
<path fill="#FFFFFF" d="M59.79,23.945c-1.541-0.169-2.927,0.943-3.096,2.484l-1.013,9.243c-7.859-8.036-20.367-10.384-30.834-4.936
	c-7.704,4.012-12.91,11.562-13.924,20.199c-0.18,1.541,0.921,2.936,2.46,3.115c1.54,0.182,2.935-0.92,3.115-2.46
	c0.797-6.789,4.887-12.723,10.941-15.875c8.27-4.304,18.161-2.415,24.328,3.984l-10.216-1.119c-1.541-0.169-2.928,0.943-3.096,2.484
	c-0.169,1.542,0.943,2.928,2.484,3.096l16.438,1.801c0.771,0.085,1.502-0.151,2.062-0.601c0.561-0.45,0.949-1.113,1.033-1.884
	l1.801-16.437C62.443,25.5,61.331,24.114,59.79,23.945L59.79,23.945z M59.79,23.945"/>
</svg>
