<?xml version="1.0" encoding="utf-8"?>
<!-- Generator: Adobe Illustrator 16.0.0, SVG Export Plug-In . SVG Version: 6.00 Build 0)  -->
<!DOCTYPE svg PUBLIC "-//W3C//DTD SVG 1.1//EN" "http://www.w3.org/Graphics/SVG/1.1/DTD/svg11.dtd">
<svg version="1.1" id="Layer_1" xmlns="http://www.w3.org/2000/svg" xmlns:xlink="http://www.w3.org/1999/xlink" x="0px" y="0px"
	 width="39.667px" height="28.167px" viewBox="0 0 39.667 28.167" enable-background="new 0 0 39.667 28.167" xml:space="preserve">
<g>
	<path fill="#FFFFFF" d="M30.112,1.667c-4.719,0-8.445,3.825-8.445,8.543c0,4.719,3.875,8.548,8.594,8.548
		c0.047,0,0.117-0.008,0.164-0.008c-1.863,1.484-4.207,2.377-6.773,2.377c-1.18,0-2.129,0.957-2.129,2.137s0.758,2.137,1.941,2.137
		c8.375,0,14.992-6.815,14.992-15.191v-0.004C38.456,5.492,34.827,1.667,30.112,1.667L30.112,1.667z M30.112,1.667"/>
	<path fill="#FFFFFF" d="M10.101,1.667c-4.719,0-8.454,3.825-8.454,8.543c0,4.719,3.875,8.548,8.594,8.548
		c0.047,0,0.117-0.008,0.164-0.008c-1.867,1.484-4.211,2.377-6.777,2.377c-1.18,0-2.129,0.957-2.129,2.137s0.77,2.137,1.953,2.137
		c8.375,0,15.003-6.815,15.003-15.191v-0.004C18.456,5.492,14.815,1.667,10.101,1.667L10.101,1.667z M10.101,1.667"/>
</g>
</svg>
