<?xml version="1.0" encoding="utf-8"?>
<!-- Generator: Adobe Illustrator 16.0.0, SVG Export Plug-In . SVG Version: 6.00 Build 0)  -->
<!DOCTYPE svg PUBLIC "-//W3C//DTD SVG 1.1//EN" "http://www.w3.org/Graphics/SVG/1.1/DTD/svg11.dtd">
<svg version="1.1" id="Layer_1" xmlns="http://www.w3.org/2000/svg" xmlns:xlink="http://www.w3.org/1999/xlink" x="0px" y="0px"
	 width="256px" height="256px" viewBox="0 0 256 256" enable-background="new 0 0 256 256" xml:space="preserve">
<g>
	<g>
		<defs>
			<rect id="SVGID_1_" x="5.92" y="3.772" width="244.08" height="250.455"/>
		</defs>
		<clipPath id="SVGID_2_">
			<use xlink:href="#SVGID_1_"  overflow="visible"/>
		</clipPath>
		<path clip-path="url(#SVGID_2_)" fill="#FFFFFF" d="M249.292,130.771c-2.023-13.156-11.639-24.289-26.312-28.841
			c-7.589-2.53-21.249-5.566-31.875-8.096c19.732-28.332,23.275-57.174,16.189-73.869c-4.553-10.12-12.649-16.192-23.272-16.192
			c-22.769,0-26.312,20.746-31.371,34.911c-3.543,10.626-21.252,29.852-47.561,44.527C85.358,94.34,66.636,109.013,65.623,109.52
			c-2.53,2.023-4.046,5.06-4.046,8.603v106.253c0,3.54,1.517,6.576,4.553,8.6c15.686,11.133,71.849,20.746,99.677,20.746
			c14.673,0,20.239-2.53,23.275-4.047c12.649-7.083,29.346-47.057,41.488-80.956C244.739,158.094,251.315,144.431,249.292,130.771
			L249.292,130.771z M214.885,152.527c-2.023,1.52-3.034,3.543-4.047,5.566c-11.132,30.357-26.815,66.282-32.888,72.353
			c-1.014,0.506-4.047,1.52-12.144,1.52c-26.311,0-66.789-8.097-81.968-14.169v-94.108c6.58-5.06,19.229-14.169,31.878-21.252
			c28.332-16.192,52.113-38.454,58.187-56.669c0.504-2.023,1.01-4.553,1.517-6.577c4.554-13.663,5.566-13.663,8.603-13.663
			c1.011,0,2.023,0,3.54,3.037c4.554,10.626,0.507,37.948-23.779,64.259c-6.072,6.577-2.025,16.696,5.564,18.216
			c0.506,0,33.395,7.589,47.057,11.636c6.576,2.023,10.626,6.577,11.13,11.133C228.547,139.878,223.487,146.458,214.885,152.527
			L214.885,152.527z M214.885,152.527"/>
	</g>
	<path fill="#FFFFFF" d="M23.629,98.894c-10.12,0-17.709,7.589-17.709,17.709v108.784c0,10.119,7.589,17.709,17.709,17.709
		c10.119,0,18.215-7.59,18.215-17.709V116.603C41.844,106.483,33.748,98.894,23.629,98.894L23.629,98.894z M23.629,98.894"/>
</g>
</svg>
