<?xml version="1.0" encoding="utf-8"?>
<!-- Generator: Adobe Illustrator 16.0.0, SVG Export Plug-In . SVG Version: 6.00 Build 0)  -->
<!DOCTYPE svg PUBLIC "-//W3C//DTD SVG 1.1//EN" "http://www.w3.org/Graphics/SVG/1.1/DTD/svg11.dtd">
<svg version="1.1" id="Layer_1" xmlns="http://www.w3.org/2000/svg" xmlns:xlink="http://www.w3.org/1999/xlink" x="0px" y="0px"
	 width="78px" height="78px" viewBox="0 0 78 78" enable-background="new 0 0 78 78" xml:space="preserve">
<g>
	<path d="M76,16.253c-2.71,1.203-5.646,2.035-8.716,2.399c3.138-1.879,5.532-4.858,6.684-8.406
		c-2.936,1.739-6.188,3.006-9.665,3.681c-2.755-2.935-6.706-4.784-11.064-4.784c-8.378,0-15.178,6.797-15.178,15.174
		c0,1.197,0.141,2.346,0.389,3.458c-12.625-0.637-23.801-6.667-31.298-15.857c-1.312,2.235-2.058,4.855-2.058,7.636
		c0,5.261,2.688,9.916,6.752,12.619c-2.488-0.062-4.81-0.761-6.863-1.896v0.186c0,7.358,5.237,13.501,12.169,14.901
		c-1.268,0.339-2.62,0.52-3.995,0.52c-0.971,0-1.92-0.09-2.868-0.271c1.942,6.03,7.537,10.409,14.181,10.545
		c-5.199,4.065-11.749,6.482-18.858,6.482c-1.219,0-2.417-0.068-3.613-0.205c6.73,4.314,14.701,6.82,23.279,6.82
		c27.914,0,43.178-23.123,43.178-43.176l-0.044-1.965C71.394,21.97,73.968,19.306,76,16.253L76,16.253z M76,16.253"/>
</g>
</svg>
