<?xml version="1.0" encoding="utf-8"?>
<!-- Generator: Adobe Illustrator 16.0.0, SVG Export Plug-In . SVG Version: 6.00 Build 0)  -->
<!DOCTYPE svg PUBLIC "-//W3C//DTD SVG 1.1//EN" "http://www.w3.org/Graphics/SVG/1.1/DTD/svg11.dtd">
<svg version="1.1" id="Layer_1" xmlns="http://www.w3.org/2000/svg" xmlns:xlink="http://www.w3.org/1999/xlink" x="0px" y="0px"
	 width="26.5px" height="28.167px" viewBox="0 0 26.5 28.167" enable-background="new 0 0 26.5 28.167" xml:space="preserve">
<g>
	<path fill="#FFFFFF" d="M13.173,14.962c1.823,0,3.378-0.645,4.668-1.935s1.934-2.845,1.934-4.668c0-1.822-0.644-3.377-1.934-4.668
		c-1.29-1.289-2.845-1.934-4.668-1.934c-1.822,0-3.379,0.645-4.668,1.934c-1.29,1.291-1.933,2.846-1.933,4.668
		c0,1.823,0.644,3.378,1.933,4.668S11.351,14.962,13.173,14.962L13.173,14.962z M13.173,14.962"/>
	<path fill="#FFFFFF" d="M25.217,21.934c-0.041-0.579-0.121-1.203-0.241-1.874c-0.12-0.671-0.272-1.293-0.456-1.866
		c-0.184-0.573-0.43-1.131-0.739-1.676c-0.31-0.545-0.665-1.009-1.065-1.393c-0.402-0.384-0.892-0.69-1.471-0.92
		c-0.579-0.228-1.218-0.342-1.917-0.342c-0.103,0-0.344,0.122-0.722,0.368c-0.378,0.249-0.805,0.523-1.281,0.826
		c-0.477,0.304-1.096,0.58-1.856,0.826c-0.763,0.246-1.527,0.371-2.296,0.371c-0.768,0-1.532-0.125-2.295-0.371
		s-1.382-0.521-1.856-0.826c-0.477-0.302-0.903-0.577-1.281-0.826c-0.378-0.246-0.62-0.368-0.722-0.368
		c-0.699,0-1.339,0.114-1.917,0.342c-0.579,0.23-1.07,0.536-1.471,0.92s-0.756,0.848-1.065,1.393
		c-0.31,0.544-0.556,1.103-0.74,1.676c-0.183,0.573-0.334,1.195-0.455,1.866c-0.121,0.671-0.201,1.295-0.241,1.874
		c-0.041,0.578-0.06,1.171-0.06,1.78c0,1.373,0.418,2.459,1.255,3.258c0.837,0.795,1.949,1.194,3.336,1.194h15.027
		c1.387,0,2.498-0.399,3.335-1.194c0.837-0.799,1.256-1.885,1.256-3.258C25.278,23.105,25.257,22.512,25.217,21.934L25.217,21.934z
		 M25.217,21.934"/>
</g>
</svg>
