<?xml version="1.0" standalone="no"?>
<!DOCTYPE svg PUBLIC "-//W3C//DTD SVG 20010904//EN"
 "http://www.w3.org/TR/2001/REC-SVG-20010904/DTD/svg10.dtd">
<svg version="1.0" xmlns="http://www.w3.org/2000/svg"
 width="669.000000pt" height="669.000000pt" viewBox="0 0 669.000000 669.000000"
 preserveAspectRatio="xMidYMid meet">
<metadata>
Created by potrace 1.11, written by Peter Selinger 2001-2013
</metadata>
<g transform="translate(0.000000,669.000000) scale(0.100000,-0.100000)"
fill="#000000" stroke="none">
<path d="M0 3345 l0 -3345 3345 0 3345 0 0 3345 0 3345 -3345 0 -3345 0 0
-3345z m5205 1126 c190 -50 290 -141 331 -301 21 -82 15 -184 -16 -263 -28
-74 -119 -173 -189 -207 -28 -14 -50 -28 -51 -31 0 -4 13 -12 30 -19 42 -18
98 -82 131 -154 15 -33 53 -153 83 -266 30 -113 62 -224 70 -247 l15 -43 -179
0 -179 0 -21 57 c-12 31 -41 135 -65 230 -49 189 -69 237 -115 276 -40 34 -89
47 -177 47 l-73 0 0 -305 0 -305 -175 0 -175 0 0 764 0 764 53 7 c129 19 226
23 417 20 170 -2 219 -7 285 -24z m-3785 -281 l0 -300 285 0 285 0 0 300 0
300 175 0 175 0 0 -775 0 -775 -175 0 -175 0 0 320 0 320 -285 0 -285 0 0
-320 0 -320 -175 0 -175 0 0 775 0 775 175 0 175 0 0 -300z m1768 18 c76 -262
151 -555 185 -723 8 -38 17 -63 20 -55 4 8 20 71 37 140 67 270 100 382 256
873 l16 47 229 0 229 0 0 -42 c0 -24 18 -369 40 -768 22 -399 40 -728 40 -732
0 -5 -76 -8 -169 -8 l-168 0 -6 113 c-4 61 -11 254 -17 427 -22 672 -23 687
-32 650 -34 -134 -113 -405 -197 -677 -55 -175 -111 -357 -126 -405 l-26 -88
-134 0 -133 0 -11 33 c-66 209 -242 900 -289 1137 -7 38 -10 18 -16 -115 -4
-88 -16 -347 -27 -575 -10 -228 -19 -434 -19 -457 l0 -43 -160 0 -160 0 0 44
c0 24 20 362 45 752 25 389 45 718 45 731 l0 23 233 0 233 0 82 -282z m1106
-1474 c35 -34 4 -104 -46 -104 -29 0 -58 28 -58 57 0 50 69 82 104 47z m-1360
-246 c15 -134 29 -255 32 -270 l6 -28 -60 0 -60 0 -7 70 -7 70 -78 0 -77 0
-32 -70 -31 -70 -60 0 -59 0 33 73 c19 39 77 161 130 270 l95 197 74 0 73 0
28 -242z m1095 150 c-4 -24 -8 -46 -9 -50 0 -5 18 -8 40 -8 l41 0 -7 -37 c-9
-52 -10 -53 -54 -53 l-39 0 -12 -57 c-7 -32 -13 -78 -13 -103 -1 -42 1 -45 28
-48 27 -3 28 -5 23 -44 -6 -47 -19 -58 -67 -58 -46 0 -82 19 -98 53 -11 22
-10 42 3 119 9 51 18 103 22 115 4 20 1 23 -21 23 -24 0 -26 3 -20 28 12 57
16 62 38 62 18 0 24 8 32 37 8 32 15 39 49 49 70 21 73 20 64 -28z m-223 -60
c3 -3 0 -24 -6 -45 l-12 -39 -55 0 c-50 1 -57 -2 -88 -36 -84 -91 -40 -209 67
-181 l38 10 0 -43 c0 -23 -5 -46 -11 -49 -6 -4 -36 -9 -68 -12 -124 -12 -200
63 -188 183 11 107 80 189 182 215 32 9 131 6 141 -3z m817 -2 c44 -18 85 -68
93 -114 17 -89 -36 -206 -111 -249 -158 -89 -310 12 -275 182 30 144 172 232
293 181z m507 -11 c38 -34 35 -108 -12 -327 l-10 -48 -54 0 c-30 0 -54 4 -54
8 0 5 9 57 20 117 25 139 25 161 -1 175 -16 9 -26 8 -44 -4 -37 -24 -57 -71
-80 -186 l-21 -105 -57 -3 c-56 -3 -57 -2 -52 20 8 39 65 349 65 359 0 5 23 9
51 9 49 0 51 -1 47 -25 -6 -29 -1 -31 21 -11 53 48 140 58 181 21z m378 11
c16 -10 -12 -82 -29 -77 -33 9 -99 5 -111 -7 -18 -18 -1 -41 53 -72 58 -34 82
-77 73 -127 -14 -77 -97 -121 -203 -109 -61 7 -92 21 -86 39 2 6 9 24 14 39
l10 26 49 -14 c36 -11 56 -12 76 -5 37 15 34 48 -6 69 -60 32 -98 76 -98 116
0 64 32 105 99 127 28 9 142 6 159 -5z m-2308 -8 c0 -7 -9 -59 -20 -116 -26
-132 -26 -158 1 -172 16 -9 26 -8 45 4 40 27 55 60 78 178 l22 113 58 3 c57 3
58 2 53 -20 -8 -33 -67 -348 -67 -359 0 -5 -23 -9 -51 -9 -49 0 -51 1 -47 25
6 28 -3 32 -22 11 -21 -26 -96 -49 -135 -42 -72 14 -83 68 -50 251 14 77 25
141 25 143 0 1 25 2 55 2 37 0 55 -4 55 -12z m1073 -65 c-8 -43 -24 -130 -36
-193 l-22 -115 -58 -3 c-53 -3 -58 -1 -54 15 3 10 20 98 38 196 l33 177 57 0
57 0 -15 -77z"/>
<path d="M4823 4233 c-23 -4 -23 -4 -23 -219 l0 -214 83 0 c144 0 238 35 288
108 34 51 40 162 10 220 -25 49 -78 87 -141 101 -44 10 -173 12 -217 4z"/>
<path d="M2796 2595 c-10 -22 -31 -69 -47 -104 -16 -35 -29 -65 -29 -67 0 -2
25 -4 55 -4 l55 0 -1 43 c-1 23 -4 71 -8 107 l-7 65 -18 -40z"/>
<path d="M4485 2474 c-43 -47 -58 -141 -29 -182 16 -24 53 -29 86 -11 49 27
78 168 40 202 -28 25 -69 21 -97 -9z"/>
</g>
</svg>
